<mxfile host="65bd71144e">
    <diagram id="KwYdjg52P8gA5d6BDMBV" name="Page-1">
        <mxGraphModel dx="1386" dy="827" grid="1" gridSize="10" guides="1" tooltips="1" connect="1" arrows="1" fold="1" page="1" pageScale="1" pageWidth="827" pageHeight="1169" math="0" shadow="0">
            <root>
                <mxCell id="0"/>
                <mxCell id="1" parent="0"/>
                <mxCell id="3" value="Window Title" style="strokeWidth=1;shadow=0;dashed=0;align=center;html=1;shape=mxgraph.mockup.containers.window;align=left;verticalAlign=top;spacingLeft=8;strokeColor2=#008cff;strokeColor3=#c4c4c4;fontColor=#666666;mainText=;fontSize=17;labelBackgroundColor=none;whiteSpace=wrap;movable=0;resizable=0;rotatable=0;deletable=0;editable=0;locked=1;connectable=0;" vertex="1" parent="1">
                    <mxGeometry x="30" y="100" width="1030" height="670" as="geometry"/>
                </mxCell>
                <mxCell id="4" value="" style="rounded=1;whiteSpace=wrap;html=1;arcSize=3;fillColor=#E6E6E6;strokeColor=none;movable=0;resizable=0;rotatable=0;deletable=0;editable=0;locked=1;connectable=0;" vertex="1" parent="1">
                    <mxGeometry x="85" y="260" width="920" height="450" as="geometry"/>
                </mxCell>
                <mxCell id="5" value="&lt;h1&gt;&lt;font style=&quot;font-size: 40px;&quot;&gt;To-Do List&lt;/font&gt;&lt;/h1&gt;" style="text;html=1;align=left;verticalAlign=middle;whiteSpace=wrap;rounded=0;movable=0;resizable=0;rotatable=0;deletable=0;editable=0;locked=1;connectable=0;" vertex="1" parent="1">
                    <mxGeometry x="85" y="170" width="225" height="60" as="geometry"/>
                </mxCell>
                <mxCell id="6" value="&lt;h1&gt;&lt;font style=&quot;&quot;&gt;&lt;span style=&quot;font-size: 40px;&quot;&gt;28&lt;/span&gt;&lt;span style=&quot;font-weight: normal;&quot;&gt;&lt;sup style=&quot;&quot;&gt;&lt;font&gt;th&lt;/font&gt;&lt;/sup&gt;&lt;/span&gt;&lt;span style=&quot;font-size: 40px;&quot;&gt; Mey 2025&lt;/span&gt;&lt;/font&gt;&lt;/h1&gt;" style="text;html=1;align=right;verticalAlign=middle;whiteSpace=wrap;rounded=0;movable=0;resizable=0;rotatable=0;deletable=0;editable=0;locked=1;connectable=0;" vertex="1" parent="1">
                    <mxGeometry x="740" y="170" width="265" height="60" as="geometry"/>
                </mxCell>
                <mxCell id="25" value="" style="rounded=1;whiteSpace=wrap;html=1;movable=0;resizable=0;rotatable=0;deletable=0;editable=0;locked=1;connectable=0;" vertex="1" parent="1">
                    <mxGeometry x="140" y="400" width="30" height="30" as="geometry"/>
                </mxCell>
                <mxCell id="26" value="" style="rounded=1;whiteSpace=wrap;html=1;movable=0;resizable=0;rotatable=0;deletable=0;editable=0;locked=1;connectable=0;" vertex="1" parent="1">
                    <mxGeometry x="140" y="440" width="30" height="30" as="geometry"/>
                </mxCell>
                <mxCell id="27" value="" style="rounded=1;whiteSpace=wrap;html=1;movable=0;resizable=0;rotatable=0;deletable=0;editable=0;locked=1;connectable=0;" vertex="1" parent="1">
                    <mxGeometry x="140" y="480" width="30" height="30" as="geometry"/>
                </mxCell>
                <mxCell id="28" value="" style="rounded=1;whiteSpace=wrap;html=1;movable=0;resizable=0;rotatable=0;deletable=0;editable=0;locked=1;connectable=0;" vertex="1" parent="1">
                    <mxGeometry x="140" y="520" width="30" height="30" as="geometry"/>
                </mxCell>
                <mxCell id="29" value="" style="rounded=1;whiteSpace=wrap;html=1;movable=0;resizable=0;rotatable=0;deletable=0;editable=0;locked=1;connectable=0;" vertex="1" parent="1">
                    <mxGeometry x="140" y="560" width="30" height="30" as="geometry"/>
                </mxCell>
                <mxCell id="58" style="edgeStyle=none;html=1;" edge="1" parent="1" source="30">
                    <mxGeometry relative="1" as="geometry">
                        <mxPoint x="530" y="330" as="targetPoint"/>
                        <Array as="points">
                            <mxPoint x="510" y="420"/>
                            <mxPoint x="510" y="330"/>
                        </Array>
                    </mxGeometry>
                </mxCell>
                <mxCell id="30" value="" style="rounded=1;whiteSpace=wrap;html=1;arcSize=33;sketch=1;curveFitting=1;jiggle=2;movable=1;resizable=1;rotatable=1;deletable=1;editable=1;locked=0;connectable=1;" vertex="1" parent="1">
                    <mxGeometry x="200" y="410" width="290" height="20" as="geometry"/>
                </mxCell>
                <mxCell id="31" value="" style="rounded=1;whiteSpace=wrap;html=1;arcSize=33;sketch=1;curveFitting=1;jiggle=2;movable=0;resizable=0;rotatable=0;deletable=0;editable=0;locked=1;connectable=0;" vertex="1" parent="1">
                    <mxGeometry x="200" y="445" width="290" height="20" as="geometry"/>
                </mxCell>
                <mxCell id="32" value="" style="rounded=1;whiteSpace=wrap;html=1;arcSize=33;sketch=1;curveFitting=1;jiggle=2;movable=0;resizable=0;rotatable=0;deletable=0;editable=0;locked=1;connectable=0;" vertex="1" parent="1">
                    <mxGeometry x="200" y="485" width="290" height="20" as="geometry"/>
                </mxCell>
                <mxCell id="33" value="" style="rounded=1;whiteSpace=wrap;html=1;arcSize=33;sketch=1;curveFitting=1;jiggle=2;movable=0;resizable=0;rotatable=0;deletable=0;editable=0;locked=1;connectable=0;" vertex="1" parent="1">
                    <mxGeometry x="200" y="525" width="290" height="20" as="geometry"/>
                </mxCell>
                <mxCell id="34" value="" style="rounded=1;whiteSpace=wrap;html=1;arcSize=33;sketch=1;curveFitting=1;jiggle=2;movable=0;resizable=0;rotatable=0;deletable=0;editable=0;locked=1;connectable=0;" vertex="1" parent="1">
                    <mxGeometry x="200" y="565" width="290" height="20" as="geometry"/>
                </mxCell>
                <mxCell id="36" value="" style="verticalLabelPosition=bottom;shadow=0;dashed=0;align=center;html=1;verticalAlign=top;strokeWidth=1;shape=mxgraph.mockup.graphics.pieChart;strokeColor=#008cff;parts=10,20,35;partColors=#e0e0e0,#d0d0d0,#c0c0c0,#b0b0b0,#a0a0a0;strokeWidth=2;movable=0;resizable=0;rotatable=0;deletable=0;editable=0;locked=1;connectable=0;" vertex="1" parent="1">
                    <mxGeometry x="705" y="355" width="200" height="200" as="geometry"/>
                </mxCell>
                <mxCell id="37" value="&lt;i&gt;&lt;font style=&quot;color: rgb(230, 230, 230); font-size: 18px;&quot;&gt;&amp;nbsp; &amp;nbsp; &amp;nbsp; &amp;nbsp; &amp;nbsp;&lt;/font&gt;&lt;font style=&quot;font-size: 18px; color: rgb(163, 163, 163);&quot;&gt;search&lt;/font&gt;&lt;/i&gt;" style="rounded=1;whiteSpace=wrap;html=1;arcSize=48;align=left;movable=0;resizable=0;rotatable=0;deletable=0;editable=0;locked=1;connectable=0;" vertex="1" parent="1">
                    <mxGeometry x="310" y="180" width="270" height="40" as="geometry"/>
                </mxCell>
                <mxCell id="38" value="&lt;b&gt;&lt;font style=&quot;font-size: 18px;&quot;&gt;pending&lt;/font&gt;&lt;/b&gt;" style="rounded=1;whiteSpace=wrap;html=1;arcSize=50;strokeColor=none;movable=0;resizable=0;rotatable=0;deletable=0;editable=0;locked=1;connectable=0;" vertex="1" parent="1">
                    <mxGeometry x="137.5" y="320" width="122.5" height="40" as="geometry"/>
                </mxCell>
                <mxCell id="39" value="&lt;b&gt;&lt;font style=&quot;font-size: 18px;&quot;&gt;done&lt;/font&gt;&lt;/b&gt;" style="rounded=1;whiteSpace=wrap;html=1;arcSize=50;strokeColor=none;movable=0;resizable=0;rotatable=0;deletable=0;editable=0;locked=1;connectable=0;" vertex="1" parent="1">
                    <mxGeometry x="291" y="320" width="122.5" height="40" as="geometry"/>
                </mxCell>
                <mxCell id="42" value="&lt;b&gt;&lt;font style=&quot;font-size: 30px;&quot;&gt;75%&lt;/font&gt;&lt;/b&gt;" style="rounded=1;whiteSpace=wrap;html=1;arcSize=21;strokeColor=none;movable=0;resizable=0;rotatable=0;deletable=0;editable=0;locked=1;connectable=0;" vertex="1" parent="1">
                    <mxGeometry x="716.88" y="565" width="176.25" height="40" as="geometry"/>
                </mxCell>
                <mxCell id="43" value="&lt;b&gt;&lt;font style=&quot;font-size: 30px;&quot;&gt;+&lt;/font&gt;&lt;font style=&quot;font-size: 18px;&quot;&gt; Add&lt;/font&gt;&lt;/b&gt;" style="rounded=1;whiteSpace=wrap;html=1;arcSize=50;strokeColor=none;movable=0;resizable=0;rotatable=0;deletable=0;editable=0;locked=1;connectable=0;fillColor=#3399FF;" vertex="1" parent="1">
                    <mxGeometry x="140" y="620" width="122.5" height="40" as="geometry"/>
                </mxCell>
                <mxCell id="44" value="" style="shape=image;editableCssRules=.*;verticalLabelPosition=bottom;labelBackgroundColor=default;verticalAlign=top;aspect=fixed;imageAspect=0;image=data:image/svg+xml,PHN2ZyB4bWxucz0iaHR0cDovL3d3dy53My5vcmcvMjAwMC9zdmciIHZpZXdCb3g9Ii0wLjUgLTAuNSAyOCAyOCIgaGVpZ2h0PSIyOCIgd2lkdGg9IjI4Ij4mI3hhOwkgIDxzdHlsZSB0eXBlPSJ0ZXh0L2NzcyI+JiN4YTsJCS5zdDB7c3RvcC1jb2xvcjojMDBjZWFjO30mI3hhOwkJLnN0MXtzdG9wLWNvbG9yOiMwNzgzOGY7fSYjeGE7CSAgPC9zdHlsZT4mI3hhOwk8ZGVmcz4mI3hhOwkJPGxpbmVhckdyYWRpZW50IGdyYWRpZW50VW5pdHM9InVzZXJTcGFjZU9uVXNlIiB5Mj0iMjUuMzA5IiB4Mj0iMjMuNDU0IiB5MT0iMy40NzQiIHgxPSIyLjAzOSIgaWQ9IkEiPiYjeGE7CQkJPHN0b3AgY2xhc3M9InN0MCIvPiYjeGE7CQkJPHN0b3AgY2xhc3M9InN0MSIgb2Zmc2V0PSIxIi8+JiN4YTsJCTwvbGluZWFyR3JhZGllbnQ+JiN4YTsJPC9kZWZzPiYjeGE7CTxwYXRoIGZpbGw9InVybCgjQSkiIGQ9Ik0xNS4yNSAxMy4xNzNhMS43IDEuNyAwIDAgMC0uMTE2LS42OGMtLjA4NS0uMjE2LS4yMTMtLjQxMy0uMzc2LS41NzhzLS4zNjItLjI5MS0uNTc4LS4zNzYtLjQ0OC0uMTI0LS42OC0uMTE2Yy0uMjMyLS4wMDgtLjQ2NC4wMzEtLjY4LjExNnMtLjQxMy4yMTMtLjU3OC4zNzYtLjI5MS4zNjItLjM3Ni41NzhhMS43IDEuNyAwIDAgMC0uMTE2LjY4djdjMCAuNDcyLjE2NS44OTIuNDkyIDEuMjU4LjE2NS4xNjMuMzYyLjI5MS41NzkuMzc1cy40NDguMTIzLjY4LjExNWExLjcgMS43IDAgMCAwIDEuMjU4LS40OWMuMzI3LS4zNjYuNDkyLS43ODQuNDkyLTEuMjZ2LTd6TTEzLjUtLjVjMS45MzIgMCAzLjczNi4zNjYgNS40MTQgMS4wOTQgMS43MTMuNzMgMy4yMDggMS43MzIgNC40ODMgMy4wMDggMS4yODMgMS4yODcgMi4zMDUgMi44MSAzLjAwOCA0LjQ4NS43MyAxLjY3NiAxLjA5NCAzLjQ4MiAxLjA5NCA1LjQxM2ExMy44MiAxMy44MiAwIDAgMS0xLjA5NCA1LjQ2OWMtLjcxMyAxLjY1NC0xLjczNCAzLjE1OC0zLjAwOCA0LjQzMS0xLjI4NiAxLjI4Mi0yLjgwOSAyLjMwMy00LjQ4MyAzLjAwNi0xLjcxLjczNi0zLjU1MyAxLjEwOC01LjQxNCAxLjA5NC0xLjg3OC4wMTEtMy43MzktLjM2MS01LjQ2OS0xLjA5NGExNC4yMyAxNC4yMyAwIDAgMS03LjQzNy03LjQzN0ExMy44MiAxMy44MiAwIDAgMS0uNSAxMy41YzAtMS45MzIuMzY0LTMuNzM2IDEuMDk0LTUuNDEzLjczLTEuNzE1IDEuNzMyLTMuMjA5IDMuMDA4LTQuNDg1UzYuMzc4IDEuMzA3IDguMDMxLjU5NEExMy44MiAxMy44MiAwIDAgMSAxMy41LS41em0wIDkuNzM1YTIuMDEgMi4wMSAwIDAgMCAxLjQ3Ny0uNjAyIDIuMDEgMi4wMSAwIDAgMCAuNjAyLTEuNDc3YzAtLjU4My0uMjAxLTEuMDc0LS42MDItMS40NzUtLjE4NC0uMjEtLjQxMS0uMzc3LS42NjYtLjQ5MXMtLjUzMi0uMTctLjgxMS0uMTY2Yy0uMjc5LS4wMDQtLjU1Ni4wNTItLjgxMS4xNjZzLS40ODIuMjgxLS42NjYuNDkxYy0uNDAxLjQwMS0uNi44OTItLjYgMS40NzVzLjIgMS4wNzYuNiAxLjQ3Ny44OTMuNjAyIDEuNDc3LjYwMnoiLz4mI3hhOzwvc3ZnPg==;" vertex="1" parent="1">
                    <mxGeometry x="970" y="270" width="28" height="28" as="geometry"/>
                </mxCell>
                <mxCell id="50" value="ACTION" style="html=1;shadow=0;dashed=0;shape=mxgraph.bootstrap.rrect;rSize=5;strokeColor=none;strokeWidth=1;fillColor=#6C767D;fontColor=#ffffff;whiteSpace=wrap;align=left;verticalAlign=middle;fontStyle=0;fontSize=14;spacingLeft=10;" vertex="1" parent="1">
                    <mxGeometry x="530" y="310" width="140" height="40" as="geometry"/>
                </mxCell>
                <mxCell id="51" value="" style="shape=triangle;direction=south;fillColor=#ffffff;strokeColor=none;perimeter=none;" vertex="1" parent="50">
                    <mxGeometry x="1" y="0.5" width="10" height="5" relative="1" as="geometry">
                        <mxPoint x="-17" y="-2.5" as="offset"/>
                    </mxGeometry>
                </mxCell>
                <mxCell id="52" value="" style="swimlane;container=1;shape=mxgraph.bootstrap.rrect;rSize=5;strokeColor=#999999;fillColor=#ffffff;fontStyle=0;childLayout=stackLayout;horizontal=1;startSize=0;horizontalStack=0;resizeParent=1;resizeParentMax=0;resizeLast=0;collapsible=0;marginBottom=0;whiteSpace=wrap;html=1;" vertex="1" parent="1">
                    <mxGeometry x="530" y="353" width="170" height="80" as="geometry"/>
                </mxCell>
                <mxCell id="53" value="" style="text;align=center;verticalAlign=middle;spacingLeft=10;spacingRight=10;overflow=hidden;points=[[0,0.5],[1,0.5]];portConstraint=eastwest;rotatable=0;whiteSpace=wrap;html=1;fontColor=inherit;" vertex="1" parent="52">
                    <mxGeometry width="170" height="10" as="geometry"/>
                </mxCell>
                <mxCell id="54" value="REMOVE" style="text;align=left;verticalAlign=middle;spacingLeft=10;spacingRight=10;overflow=hidden;points=[[0,0.5],[1,0.5]];portConstraint=eastwest;rotatable=0;whiteSpace=wrap;html=1;fontColor=inherit;fontSize=14;fontStyle=0;fillColor=#FF3333;" vertex="1" parent="52">
                    <mxGeometry y="10" width="170" height="30" as="geometry"/>
                </mxCell>
                <mxCell id="55" value="EDIT" style="text;align=left;verticalAlign=middle;spacingLeft=10;spacingRight=10;overflow=hidden;points=[[0,0.5],[1,0.5]];portConstraint=eastwest;rotatable=0;whiteSpace=wrap;html=1;fontColor=inherit;fontSize=14;fontStyle=0;fillColor=#66FF66;" vertex="1" parent="52">
                    <mxGeometry y="40" width="170" height="30" as="geometry"/>
                </mxCell>
                <mxCell id="57" value="" style="text;align=center;verticalAlign=middle;spacingLeft=10;spacingRight=10;overflow=hidden;points=[[0,0.5],[1,0.5]];portConstraint=eastwest;rotatable=0;whiteSpace=wrap;html=1;fontColor=inherit;fillColor=default;" vertex="1" parent="52">
                    <mxGeometry y="70" width="170" height="10" as="geometry"/>
                </mxCell>
                <mxCell id="59" value="&lt;p style=&quot;margin:0px;margin-top:4px;text-align:center;&quot;&gt;&lt;b&gt;LISTE&lt;/b&gt;&lt;/p&gt;&lt;hr size=&quot;1&quot; style=&quot;border-style:solid;&quot;&gt;&lt;p style=&quot;margin:0px;margin-left:4px;&quot;&gt;+ STATUS (BOOL)&lt;br&gt;&lt;/p&gt;&lt;hr size=&quot;1&quot; style=&quot;border-style:solid;&quot;&gt;&lt;p style=&quot;margin:0px;margin-left:4px;&quot;&gt;+ IS_DONE()&amp;nbsp;&lt;/p&gt;&lt;p style=&quot;margin:0px;margin-left:4px;&quot;&gt;+ REMOVE()&lt;/p&gt;&lt;p style=&quot;margin:0px;margin-left:4px;&quot;&gt;+ EDIT()&lt;/p&gt;&lt;p style=&quot;margin:0px;margin-left:4px;&quot;&gt;+ SET_STATUS()&lt;/p&gt;" style="verticalAlign=top;align=left;overflow=fill;html=1;whiteSpace=wrap;" vertex="1" parent="1">
                    <mxGeometry x="1140" y="270" width="190" height="140" as="geometry"/>
                </mxCell>
                <mxCell id="60" value="&lt;p style=&quot;margin:0px;margin-top:4px;text-align:center;&quot;&gt;&lt;b&gt;TO DO LISTE&lt;/b&gt;&lt;/p&gt;&lt;hr size=&quot;1&quot; style=&quot;border-style:solid;&quot;&gt;&lt;p style=&quot;margin:0px;margin-left:4px;&quot;&gt;+ TAB_LIST&lt;br&gt;&lt;/p&gt;&lt;p style=&quot;margin:0px;margin-left:4px;&quot;&gt;+ PENDING (TABLE)&lt;/p&gt;&lt;p style=&quot;margin:0px;margin-left:4px;&quot;&gt;+ DONE (TABLE)&lt;/p&gt;&lt;hr size=&quot;1&quot; style=&quot;border-style:solid;&quot;&gt;&lt;p style=&quot;margin:0px;margin-left:4px;&quot;&gt;+ ADD_LIST()&lt;/p&gt;&lt;p style=&quot;margin:0px;margin-left:4px;&quot;&gt;+ DELETE_LIST()&lt;/p&gt;&lt;p style=&quot;margin:0px;margin-left:4px;&quot;&gt;+ SHOW_LIST()&lt;/p&gt;&lt;p style=&quot;margin:0px;margin-left:4px;&quot;&gt;+ ANALYTICS()&lt;/p&gt;" style="verticalAlign=top;align=left;overflow=fill;html=1;whiteSpace=wrap;" vertex="1" parent="1">
                    <mxGeometry x="1140" y="465" width="190" height="155" as="geometry"/>
                </mxCell>
            </root>
        </mxGraphModel>
    </diagram>
</mxfile>